# xmcd CD database file
#
# Track frame offsets:
#	150
#	23084
#	43466
#	64934
#	81758
#	97922
#	122457
#	145579
#	161728
#	183912
#	203938
#	248549
#
# Disc length: 3969 seconds
#
# Revision: 0
# Processed by: cddbd v1.5.2PL0 Copyright (c) Steve Scherf et al.
# Submitted via: CDex 1.51
#
DISCID=9a0f7f0c
DTITLE=Savoy Brown - Steel
DYEAR=2008
DGENRE=Blues
TTITLE0=Monday Morning Blues
TTITLE1=Long As I`Ve Got You
TTITLE2=I Don`t Remember You
TTITLE3=You Don`t Do A Thing For Me
TTITLE4=Fly Away
TTITLE5=Crying Forever
TTITLE6=Daybreak
TTITLE7=Echo Of A Sigh
TTITLE8=I`ll Keep On Singing The Blues
TTITLE9=Keeping The Dream Alive
TTITLE10=Blues Like Midnight
TTITLE11=Hellbound Train
EXTD=YEAR: 2008
EXTT0=
EXTT1=
EXTT2=
EXTT3=
EXTT4=
EXTT5=
EXTT6=
EXTT7=
EXTT8=
EXTT9=
EXTT10=
EXTT11=
PLAYORDER=
